<?xml version="1.0" standalone="no"?>
<!DOCTYPE svg PUBLIC "-//W3C//DTD SVG 20010904//EN"
 "http://www.w3.org/TR/2001/REC-SVG-20010904/DTD/svg10.dtd">
<svg version="1.0" xmlns="http://www.w3.org/2000/svg"
 width="700.000000pt" height="700.000000pt" viewBox="0 0 700.000000 700.000000"
 preserveAspectRatio="xMidYMid meet">
<metadata>
Created by potrace 1.14, written by Peter Selinger 2001-2017
</metadata>
<g transform="translate(0.000000,700.000000) scale(0.100000,-0.100000)"
fill="#000000" stroke="none">
<path d="M3278 6996 c-1 -2 -42 -6 -89 -10 -47 -4 -95 -8 -105 -10 -10 -2 -46
-7 -79 -11 -59 -7 -79 -10 -125 -20 -34 -7 -69 -14 -105 -21 -222 -40 -569
-161 -825 -288 -364 -181 -635 -378 -930 -675 -200 -201 -301 -324 -445 -542
-264 -399 -463 -909 -529 -1354 -2 -16 -8 -50 -12 -75 -7 -50 -9 -66 -21 -190
-15 -159 -8 -605 11 -707 2 -10 7 -43 10 -74 4 -31 9 -67 11 -80 3 -13 7 -38
9 -54 17 -125 155 -616 186 -660 4 -5 17 -37 30 -70 69 -178 226 -461 367
-662 141 -201 375 -463 558 -624 119 -104 461 -357 471 -346 1 1 104 164 228
362 124 198 231 367 236 375 6 8 65 103 133 210 67 108 201 320 297 473 96
152 182 288 190 302 15 25 176 282 258 410 24 39 53 83 64 99 13 18 17 31 10
35 -6 3 -119 6 -252 6 -132 0 -245 2 -250 5 -4 3 -10 145 -13 315 -5 370 -5
373 -118 600 -97 198 -120 279 -122 435 -2 211 18 292 127 502 61 116 98 223
110 313 3 22 5 164 6 316 l0 276 375 0 c367 0 377 -1 423 -22 62 -29 101 -72
122 -134 14 -42 17 -84 15 -239 -3 -246 -19 -313 -119 -512 -40 -80 -81 -172
-91 -205 -17 -60 -19 -67 -30 -140 -7 -47 -8 -236 -1 -256 3 -8 7 -31 11 -52
9 -66 42 -149 114 -292 39 -77 71 -147 71 -157 0 -38 19 -23 65 50 26 42 67
106 90 142 23 36 52 83 65 105 13 22 26 42 29 45 4 3 14 19 23 36 14 25 15 38
6 75 -6 24 -10 107 -10 184 0 183 18 254 116 450 116 234 119 245 123 535 3
218 1 253 -17 321 -24 91 -43 135 -92 211 -87 134 -211 231 -363 283 -112 38
-161 40 -800 40 l-580 0 -5 -535 c-7 -629 -2 -600 -119 -837 -68 -136 -96
-208 -118 -298 -3 -11 -7 -76 -9 -145 -5 -194 22 -307 119 -487 76 -140 112
-251 121 -368 2 -33 5 -277 5 -542 l1 -483 285 -2 286 -3 -129 -205 c-153
-244 -310 -494 -527 -838 -88 -139 -182 -288 -210 -332 -27 -44 -53 -81 -56
-82 -5 -3 -208 138 -219 152 -3 3 -39 33 -80 67 -74 60 -262 241 -330 318
-244 277 -429 577 -562 910 -55 136 -119 327 -133 392 -2 10 -12 56 -23 103
-11 47 -23 105 -27 130 -4 24 -8 47 -10 50 -2 3 -6 32 -10 65 -4 33 -8 74 -11
90 -27 210 -22 581 11 800 91 599 323 1118 708 1585 81 98 322 340 386 388 20
15 45 35 56 45 38 36 221 166 317 226 165 104 401 219 589 287 77 28 252 82
283 88 12 2 39 9 61 14 22 6 55 14 73 17 18 3 63 12 100 19 37 8 90 17 117 20
28 4 66 9 85 11 175 23 598 23 717 1 11 -3 44 -7 74 -11 241 -28 588 -126 829
-232 77 -34 297 -147 356 -183 l64 -39 18 27 c32 46 162 252 162 257 0 3 -4 5
-9 5 -6 0 -30 13 -54 30 -72 48 -343 185 -473 238 -104 43 -347 127 -394 137
-8 2 -42 10 -75 19 -106 27 -247 54 -365 70 -63 9 -133 18 -155 21 -43 6 -551
16 -557 11z"/>
<path d="M5464 6313 c-20 -32 -59 -94 -87 -138 -27 -44 -59 -96 -72 -115 -12
-19 -39 -62 -60 -95 -21 -33 -48 -76 -60 -95 -12 -19 -60 -96 -107 -170 -171
-272 -409 -651 -553 -880 -81 -129 -162 -257 -180 -285 -86 -134 -627 -998
-631 -1010 -4 -10 7 -13 51 -12 l56 2 97 155 c53 85 100 160 105 165 4 6 48
75 97 154 49 79 94 149 99 154 5 5 63 9 129 9 132 0 182 -14 236 -68 62 -63
69 -92 69 -284 0 -96 -3 -204 -7 -240 -10 -90 -47 -196 -115 -325 -67 -127
-96 -206 -111 -302 -13 -74 -16 -253 -6 -299 4 -16 8 -38 10 -50 12 -63 43
-140 110 -277 82 -166 103 -231 114 -362 13 -142 7 -365 -10 -405 -22 -50 -64
-98 -112 -123 -40 -21 -51 -22 -423 -25 l-383 -3 -1 268 c-1 147 -2 279 -4
293 -15 147 -40 223 -125 385 -32 61 -66 133 -75 160 -62 182 -50 478 25 629
33 67 -3 17 -101 -139 -51 -82 -153 -244 -226 -359 l-132 -208 55 -107 c67
-131 103 -241 112 -346 4 -44 7 -297 7 -563 l-1 -483 641 3 c630 4 641 4 713
26 128 39 248 113 330 201 43 47 109 155 135 221 40 103 46 159 44 405 -3 278
-14 327 -117 530 -78 154 -96 202 -115 305 -17 96 -13 273 10 370 10 47 45
133 92 228 127 262 132 286 129 602 -2 224 -3 239 -28 313 -69 206 -223 367
-422 442 -36 13 -80 27 -97 30 -61 11 -61 14 -4 105 30 47 80 127 112 178 74
119 96 153 164 259 30 49 154 244 275 435 120 192 227 360 236 375 10 16 23
38 29 51 7 12 16 22 20 22 15 0 194 -153 308 -264 241 -236 443 -507 599 -807
53 -102 145 -308 157 -349 0 -3 20 -61 42 -130 23 -69 48 -152 57 -185 21 -85
64 -310 71 -374 3 -30 8 -64 10 -75 14 -66 21 -460 10 -561 -2 -22 -7 -69 -10
-105 -3 -36 -8 -76 -10 -90 -2 -14 -7 -43 -10 -65 -13 -93 -38 -211 -70 -335
-35 -136 -135 -414 -179 -498 -7 -15 -35 -70 -61 -122 -366 -728 -1038 -1306
-1819 -1565 -127 -42 -294 -88 -366 -100 -19 -3 -71 -12 -115 -20 -158 -28
-309 -40 -520 -39 -156 0 -330 8 -382 18 -12 3 -43 7 -70 11 -297 39 -654 150
-934 291 l-106 53 -81 -128 c-45 -70 -84 -134 -87 -143 -11 -28 342 -189 585
-267 99 -31 303 -86 354 -95 16 -3 52 -10 80 -15 62 -13 96 -18 155 -27 25 -3
57 -7 70 -10 127 -19 557 -26 726 -11 582 53 1158 256 1640 580 61 41 251 182
271 202 6 5 35 30 65 55 58 49 271 258 335 330 255 285 493 673 639 1040 63
157 135 400 170 575 9 44 19 89 21 100 41 193 60 606 41 870 -26 354 -101 682
-232 1016 -60 152 -167 372 -240 494 -51 85 -182 282 -199 301 -6 7 -20 24
-31 40 -11 15 -31 41 -45 58 -14 17 -34 42 -45 55 -165 202 -412 435 -637 599
l-57 42 -37 -57z"/>
</g>
</svg>
